<svg id="Camada_2" fill="#fff" data-name="Camada 2" xmlns="http://www.w3.org/2000/svg" viewBox="0 0 104.69 119.58"><path d="M93,24.64c0,5.91.17,11.83,0,17.74-.33,9.77-4.24,17.83-12.12,23.8a29.9,29.9,0,0,1-36.67-.83A28.67,28.67,0,0,1,33.3,44.18c-.61-10.59-.11-21.19-.25-31.79,0-2.09,0-4.18,0-6.27,0-1.44.09-1.49,1.36-.86,4.06,2,8.14,4,12.18,6.12a2.86,2.86,0,0,0,2.92,0c3.88-2,7.83-3.86,11.68-5.89a3.49,3.49,0,0,1,3.66,0c3.89,2.07,7.88,4,11.79,6a2.67,2.67,0,0,0,2.68,0c4-2,8-4,12.07-6C93,4.59,93,4.59,93,6.48q0,9.09,0,18.16ZM63.08,38.5v0H42.38c-.85,0-1.61-.07-1.65,1.2-.2,7,1.66,13.17,6.71,18.25A22.08,22.08,0,0,0,78,58.55a22.67,22.67,0,0,0,7.34-18.23c-.07-1.81,0-1.82-1.83-1.82Zm0-7.71h0q10.35,0,20.7,0c.87,0,1.62,0,1.61-1.23,0-3.82,0-7.64,0-11.46,0-.86-.24-1.07-1-.65-1.69.89-3.42,1.68-5.09,2.6a2.4,2.4,0,0,1-2.54,0C72.61,18,68.49,16,64.41,13.88a2.65,2.65,0,0,0-2.68,0C57.61,16,53.45,18,49.32,20.14a2.24,2.24,0,0,1-2.29,0c-1.64-.89-3.34-1.65-5-2.54-1-.52-1.33-.46-1.31.77,0,3.55.07,7.1,0,10.64,0,1.36.35,1.82,1.76,1.8C49.34,30.75,56.2,30.79,63.05,30.79Z" transform="translate(-10.69 -4.88)"/><path d="M63,124.46q-19.62,0-39.24,0a14.43,14.43,0,0,1-6.39-1.09,11.33,11.33,0,0,1-6.69-10.43A31.66,31.66,0,0,1,37.87,79.64c4.74-.74,9.17.32,13.64,1.69a37.18,37.18,0,0,0,24.36-.43c11-4.09,24.86,1.08,31.7,9.23a32.77,32.77,0,0,1,7.79,22.79A11.37,11.37,0,0,1,107,124a17.28,17.28,0,0,1-4.86.5Zm0-7.9H85.38c6.13,0,12.26,0,18.39,0,2.29,0,3.83-1.27,3.91-3.32.34-9.12-2.68-16.73-10.38-22-6-4.09-12.47-5.44-19.52-2.87a41.4,41.4,0,0,1-11.72,2.26A52.86,52.86,0,0,1,46.89,88c-8.61-2.69-15.8.42-21.81,6.35-4.91,4.84-6.95,11.07-6.7,18,.11,2.83,1.36,4.15,4.22,4.16Z" transform="translate(-10.69 -4.88)"/></svg>