<svg id="Camada_2" fill="#fff" data-name="Camada 2" xmlns="http://www.w3.org/2000/svg" viewBox="0 0 126.58 88.35"><path d="M86.21,28.14c0,4.35,0,8.7,0,13a22.22,22.22,0,0,1-44.08,3.73,18.83,18.83,0,0,1-.34-3.44q0-13.74,0-27.47c0-1.55.06-1.59,1.44-.9,2.79,1.39,5.6,2.75,8.36,4.2a2.58,2.58,0,0,0,2.69,0c2.76-1.45,5.58-2.78,8.34-4.23a2.58,2.58,0,0,1,2.69,0c2.86,1.5,5.78,2.88,8.66,4.36a2.13,2.13,0,0,0,2.17,0c2.94-1.51,5.91-3,8.87-4.45,1-.51,1.19-.42,1.19.75C86.22,18.52,86.21,23.33,86.21,28.14ZM64.06,37.93H49.63c-.71,0-1.32,0-1.32,1a21.77,21.77,0,0,0,.33,5.29c1.63,6.43,5.62,10.58,12.15,12.05a15.55,15.55,0,0,0,16.09-6.39,17.05,17.05,0,0,0,2.84-10.5c0-1.09-.33-1.48-1.45-1.47C73.53,38,68.8,37.93,64.06,37.93Zm0-6.5h0c4.8,0,9.61,0,14.42,0,.94,0,1.3-.29,1.28-1.26-.06-2,0-4.07,0-6.11,0-1-.36-1.11-1.15-.66-.57.33-1.2.54-1.75.89a3,3,0,0,1-3.41,0c-2.78-1.49-5.66-2.79-8.48-4.21a1.82,1.82,0,0,0-1.83,0c-2.2,1.11-4.52,2-6.6,3.3-2.4,1.51-4.61,1.84-6.92,0l-.11-.05c-.79-.49-1.16-.34-1.14.66,0,2,.06,4,0,6,0,1.07.36,1.39,1.4,1.38C54.47,31.4,59.24,31.43,64,31.43Z" transform="translate(-0.7 -12.67)"/><path d="M64,101c-9.47,0-18.94,0-28.41,0a9.42,9.42,0,0,1-9.54-8.92,24.14,24.14,0,0,1,3.69-15.64c3.41-5.22,8.34-8,14.35-9.18A24.26,24.26,0,0,1,55.38,68a32.56,32.56,0,0,0,17.86-.13c8.13-2.21,15.61-.76,22,5a20.86,20.86,0,0,1,6.48,12.35,31.6,31.6,0,0,1,.2,7.71c-.34,4.43-4.62,8.12-9.35,8.13-8.62,0-17.24,0-25.87,0Zm-.12-6.52H77.62c4.85,0,9.7,0,14.55,0a2.94,2.94,0,0,0,3.26-3.19c0-1.27,0-2.54,0-3.81a14.79,14.79,0,0,0-9.58-13,17.64,17.64,0,0,0-11.12-.33,36.1,36.1,0,0,1-20.82.13,19.31,19.31,0,0,0-7.76-.74,14.68,14.68,0,0,0-10.37,5.62c-2.62,3.4-3.39,7.31-3.19,11.52.13,2.82,1,3.79,3.85,3.79Z" transform="translate(-0.7 -12.67)"/><path d="M3.9,40.85A15.87,15.87,0,1,1,19.64,56.79,15.77,15.77,0,0,1,3.9,40.85Zm25.2.23a9.35,9.35,0,1,0-18.7-.32,9.35,9.35,0,1,0,18.7.32Z" transform="translate(-0.7 -12.67)"/><path d="M92.38,40.85a15.87,15.87,0,1,1,15.74,15.94A15.79,15.79,0,0,1,92.38,40.85Zm6.52-.09a9.34,9.34,0,0,0,9.41,9.59,9.41,9.41,0,1,0-9.41-9.59Z" transform="translate(-0.7 -12.67)"/><path d="M19.58,62.89c2.68,0,5.38-.12,8,.65a15.65,15.65,0,0,1,3.59,1.55c.52.3.65.59.08,1a23.14,23.14,0,0,0-3.94,3.53.87.87,0,0,1-1,.29,14,14,0,0,0-5.14-.53,51.71,51.71,0,0,0-6.1.13,9,9,0,0,0-7.83,8.74,4.65,4.65,0,0,1-.31,1.8,3.39,3.39,0,0,1-3.22,2A3.28,3.28,0,0,1,.82,79.45a10.22,10.22,0,0,1,.25-4.12A15.55,15.55,0,0,1,16.23,62.89C17.34,62.87,18.46,62.88,19.58,62.89Z" transform="translate(-0.7 -12.67)"/><path d="M108.35,69.39c-2.26,0-4.55-.21-6.76.55-.49.17-.78-.19-1.08-.49a25.73,25.73,0,0,0-3.62-3.22c-.83-.57-.57-.9.12-1.28a14.67,14.67,0,0,1,6.7-2c3.8-.13,7.62-.4,11.39.33a15.44,15.44,0,0,1,12,13.34c.05.58.14,1.15.17,1.72a3.25,3.25,0,1,1-6.47.38c-.22-3.77-1.75-6.72-5.19-8.54a9,9,0,0,0-3.91-.82C110.58,69.35,109.46,69.39,108.35,69.39Z" transform="translate(-0.7 -12.67)"/></svg>