<svg xmlns="http://www.w3.org/2000/svg" viewBox="0 0 512 512"><defs><style>.cls-1{fill:#a32929;}.cls-2{fill:#b52828;}.cls-3{fill:#c13434;}</style></defs><g id="Camada_2" data-name="Camada 2"><g id="Camada_1-2" data-name="Camada 1"><path class="cls-1" d="M219,264A206.42,206.42,0,0,1,94.47,74.55c0-.68,0-1.36,0-2A6.87,6.87,0,0,0,83,67.31a255.35,255.35,0,0,0-83,193C2.25,396.05,111.67,507.41,247.4,511.86c139.61,4.57,255.19-102.68,264-239A239,239,0,0,1,219,264Z"/><path class="cls-2" d="M491.13,154.64A206.55,206.55,0,0,1,219,264a239,239,0,0,0,292.46,8.79c.36-5.57.56-11.17.56-16.83A255.08,255.08,0,0,0,491.13,154.64Z"/><path class="cls-3" d="M256,0A255,255,0,0,0,143.53,26a14.21,14.21,0,0,0-7.73,10.18A239.22,239.22,0,0,0,219,264a206.55,206.55,0,0,0,272.15-109.4C451.87,63.67,361.37,0,256,0Z"/></g></g></svg>