<svg id="Camada_1" data-name="Camada 1" xmlns="http://www.w3.org/2000/svg" viewBox="0 0 612 792"><defs><style>.cls-1{fill:#e30613;}</style></defs><path class="cls-1" d="M194,201.06c11.84,33.68,7.77,70.92-.91,105.54-6.53,26-15.47,54.18-4.77,78.8,3.37,7.78,8.54,14.63,13.66,21.38,14.61,19.26,29.44,38.64,39.63,60.56s15.51,46.91,10.09,70.47c-.77,3.36-1.73,7-.29,10.13,2.21,4.79,8.54,5.65,13.81,5.84,19.26.7,39.61,1.14,56.45-8.21,14.36-8,24.19-22.06,32.61-36.16,5.61-9.39,10.91-19.19,13.2-29.89,4-18.38-1.27-37.74,2.23-56.21,2.61-13.78,9.91-26.25,13.34-39.84,5-20,1.4-41.26-5.74-60.57-5-13.63-12-26.86-22.43-36.94-5.82-5.6-12.6-10.1-19.34-14.57l-36.35-24.1c-29.21-19.36-58.49-38.77-89.5-55.12-7.27-3.84-18-6.65-22.24.43-2.33,3.93-1,9.12,1.69,12.83s6.46,6.43,9.66,9.7a31.15,31.15,0,0,1-11.61-21.62"/><path class="cls-1" d="M191.57,201.73c10.81,31,8.12,64.67,1,96.19-6.82,30.15-20.18,63.86-4.14,93.42,3.84,7.1,8.9,13.45,13.77,19.86s9.82,13,14.55,19.63c9.38,13.19,18.15,27,24.53,41.91,6.27,14.65,10.22,30.57,10.05,46.56a83.6,83.6,0,0,1-1,12.14c-.58,3.75-1.75,7.44-2.13,11.22a11.12,11.12,0,0,0,3.3,9.6,15.79,15.79,0,0,0,8.06,3.48,79.82,79.82,0,0,0,10.59.71c3.88.11,7.75.19,11.63.14a117.77,117.77,0,0,0,22.95-2.23,63.5,63.5,0,0,0,20.9-8.28,72.13,72.13,0,0,0,16.09-14.3,145,145,0,0,0,12.83-18.09A156.72,156.72,0,0,0,365.7,493a71.55,71.55,0,0,0,5.6-23.39c.56-8.29-.06-16.6-.3-24.89s-.08-16.48,1.94-24.51c1.94-7.76,5.15-15.11,8-22.55a98.1,98.1,0,0,0,6.26-23.17,93,93,0,0,0-.33-24.15,135.48,135.48,0,0,0-14.55-44.78,88.3,88.3,0,0,0-12.76-18.32c-5.47-6-12-10.75-18.7-15.26-14.47-9.75-29.08-19.29-43.62-28.93-14.32-9.49-28.67-19-43.25-28.06-14.3-8.92-28.8-17.86-43.9-25.39-5.23-2.6-11.44-4.68-17.33-3.51-6.56,1.31-10,7.63-8.74,14,1.43,7.46,8,11.83,13,16.86l3.53-3.53a29.06,29.06,0,0,1-10.87-19.85c-.29-3.18-5.29-3.21-5,0A33.87,33.87,0,0,0,197,216.89c2.45,2,5.86-1.19,3.53-3.53-4.54-4.57-12.24-9.32-11.79-16.69.37-6.15,7.12-6.47,11.72-5.38,6.66,1.58,12.67,5.51,18.59,8.8q10.88,6,21.52,12.5c28.52,17.23,56.08,36,83.85,54.44,12.94,8.59,26.79,16.58,36.21,29.26,8.86,11.93,14.65,26.19,18.44,40.48,4,15.05,5.37,31.12,1.46,46.34-3.86,15-12,28.6-14,44.17-2,15.93,1.56,32.06-.86,48-2.27,14.94-10.45,28.48-18.6,40.93-7.69,11.76-17.08,22.84-30,28.94-13.45,6.33-28.86,6.75-43.45,6.44-3.46-.08-6.94-.11-10.39-.37-2.68-.19-5.78-.6-8-2.28-2.73-2.1-2.24-5.64-1.59-8.62a114.8,114.8,0,0,0,2-11.35c1.82-15.32-.48-31-5.18-45.61C240.82,453.07,221,428,202.15,402.92c-4.6-6.13-9.18-12.5-12.06-19.66a61.88,61.88,0,0,1-4.24-21.76c-.35-15.65,3.67-31,7.54-46.05,7.79-30.32,13.5-61.62,8.54-92.93a128.56,128.56,0,0,0-5.54-22.12c-1-3-5.89-1.72-4.82,1.33Z"/></svg>